<svg width="113" height="28" viewBox="0 0 113 28" fill="none" xmlns="http://www.w3.org/2000/svg">
<path d="M5.61772 0.818181V27H0.0822088V0.818181H5.61772ZM27.5328 9.28125C27.3539 8.65909 27.1025 8.10937 26.7786 7.6321C26.4547 7.14631 26.0584 6.73722 25.5897 6.40483C25.1294 6.06392 24.601 5.80398 24.0044 5.625C23.4164 5.44602 22.7644 5.35653 22.0485 5.35653C20.7104 5.35653 19.5343 5.68892 18.5201 6.35369C17.5144 7.01846 16.7303 7.98579 16.1678 9.25568C15.6053 10.517 15.324 12.0597 15.324 13.8835C15.324 15.7074 15.601 17.2585 16.155 18.5369C16.709 19.8153 17.4931 20.7912 18.5073 21.4645C19.5215 22.1293 20.7189 22.4616 22.0996 22.4616C23.3525 22.4616 24.4221 22.2401 25.3084 21.7969C26.2033 21.3452 26.8851 20.7102 27.3539 19.892C27.8311 19.0739 28.0698 18.1065 28.0698 16.9901L29.1948 17.1562H22.4448V12.9886H33.4007V16.2869C33.4007 18.5881 32.915 20.5653 31.9434 22.2188C30.9718 23.8636 29.6337 25.1335 27.9292 26.0284C26.2246 26.9148 24.2729 27.358 22.074 27.358C19.6195 27.358 17.4632 26.8168 15.6053 25.7344C13.7473 24.6435 12.2985 23.0966 11.2587 21.0938C10.2275 19.0824 9.71183 16.696 9.71183 13.9347C9.71183 11.8125 10.0186 9.92045 10.6323 8.25852C11.2544 6.58807 12.1238 5.1733 13.2402 4.0142C14.3567 2.85511 15.6564 1.97301 17.1394 1.3679C18.6223 0.762783 20.2289 0.460226 21.959 0.460226C23.4419 0.460226 24.8226 0.677556 26.101 1.11222C27.3794 1.53835 28.513 2.14347 29.5016 2.92756C30.4988 3.71165 31.3127 4.64489 31.9434 5.72727C32.574 6.80114 32.9789 7.98579 33.1578 9.28125H27.5328ZM37.4565 27V7.36364H42.7363V10.7898H42.9409C43.2988 9.57102 43.8997 8.65057 44.7434 8.02841C45.5872 7.39773 46.5588 7.08239 47.6582 7.08239C47.9309 7.08239 48.225 7.09943 48.5403 7.13352C48.8556 7.16761 49.1326 7.21449 49.3713 7.27415V12.1065C49.1156 12.0298 48.7619 11.9616 48.3102 11.902C47.8585 11.8423 47.4451 11.8125 47.0701 11.8125C46.269 11.8125 45.5531 11.9872 44.9224 12.3366C44.3002 12.6776 43.8059 13.1548 43.4395 13.7685C43.0815 14.3821 42.9025 15.0895 42.9025 15.8906V27H37.4565ZM60.2218 27.3835C58.2019 27.3835 56.4632 26.9744 55.0059 26.1562C53.557 25.3295 52.4405 24.1619 51.6564 22.6534C50.8723 21.1364 50.4803 19.3423 50.4803 17.2713C50.4803 15.2514 50.8723 13.4787 51.6564 11.9531C52.4405 10.4276 53.5442 9.23864 54.9675 8.38636C56.3993 7.53409 58.0783 7.10795 60.0044 7.10795C61.2999 7.10795 62.5059 7.31676 63.6223 7.73438C64.7473 8.14347 65.7275 8.76136 66.5627 9.58807C67.4064 10.4148 68.0627 11.4545 68.5314 12.7074C69.0002 13.9517 69.2346 15.4091 69.2346 17.0795V18.5753H52.6536V15.2003H64.1081C64.1081 14.4162 63.9377 13.7216 63.5968 13.1165C63.2559 12.5114 62.7828 12.0384 62.1777 11.6974C61.5811 11.348 60.8865 11.1733 60.0939 11.1733C59.2672 11.1733 58.5343 11.3651 57.8951 11.7486C57.2644 12.1236 56.7701 12.6307 56.4121 13.2699C56.0542 13.9006 55.8709 14.6037 55.8624 15.3793V18.5881C55.8624 19.5597 56.0414 20.3991 56.3993 21.1065C56.7658 21.8139 57.2814 22.3594 57.9462 22.7429C58.611 23.1264 59.3993 23.3182 60.3113 23.3182C60.9164 23.3182 61.4703 23.233 61.9732 23.0625C62.476 22.892 62.9064 22.6364 63.2644 22.2955C63.6223 21.9545 63.8951 21.5369 64.0826 21.0426L69.1195 21.375C68.8638 22.5852 68.3397 23.642 67.5471 24.5455C66.763 25.4403 65.7488 26.1392 64.5044 26.642C63.2686 27.1364 61.8411 27.3835 60.2218 27.3835ZM81.7374 27.3835C79.7175 27.3835 77.9789 26.9744 76.5215 26.1562C75.0726 25.3295 73.9561 24.1619 73.1721 22.6534C72.388 21.1364 71.9959 19.3423 71.9959 17.2713C71.9959 15.2514 72.388 13.4787 73.1721 11.9531C73.9561 10.4276 75.0598 9.23864 76.4831 8.38636C77.915 7.53409 79.5939 7.10795 81.5201 7.10795C82.8155 7.10795 84.0215 7.31676 85.138 7.73438C86.263 8.14347 87.2431 8.76136 88.0783 9.58807C88.9221 10.4148 89.5783 11.4545 90.0471 12.7074C90.5158 13.9517 90.7502 15.4091 90.7502 17.0795V18.5753H74.1692V15.2003H85.6238C85.6238 14.4162 85.4533 13.7216 85.1124 13.1165C84.7715 12.5114 84.2985 12.0384 83.6934 11.6974C83.0968 11.348 82.4022 11.1733 81.6096 11.1733C80.7828 11.1733 80.0499 11.3651 79.4107 11.7486C78.78 12.1236 78.2857 12.6307 77.9277 13.2699C77.5698 13.9006 77.3865 14.6037 77.378 15.3793V18.5881C77.378 19.5597 77.557 20.3991 77.915 21.1065C78.2814 21.8139 78.7971 22.3594 79.4618 22.7429C80.1266 23.1264 80.915 23.3182 81.8269 23.3182C82.432 23.3182 82.986 23.233 83.4888 23.0625C83.9917 22.892 84.4221 22.6364 84.78 22.2955C85.138 21.9545 85.4107 21.5369 85.5982 21.0426L90.6351 21.375C90.3794 22.5852 89.8553 23.642 89.0627 24.5455C88.2786 25.4403 87.2644 26.1392 86.0201 26.642C84.7843 27.1364 83.3567 27.3835 81.7374 27.3835ZM99.7502 15.6477V27H94.3042V7.36364H99.4945V10.8281H99.7246C100.159 9.68608 100.888 8.78267 101.911 8.1179C102.933 7.4446 104.173 7.10795 105.631 7.10795C106.994 7.10795 108.183 7.40625 109.198 8.00284C110.212 8.59943 111 9.4517 111.563 10.5597C112.125 11.6591 112.406 12.9716 112.406 14.4972V27H106.96V15.4688C106.969 14.267 106.662 13.3295 106.04 12.6562C105.418 11.9744 104.561 11.6335 103.47 11.6335C102.737 11.6335 102.09 11.7912 101.527 12.1065C100.973 12.4219 100.539 12.8821 100.223 13.4872C99.9164 14.0838 99.7587 14.804 99.7502 15.6477Z" fill="#49B900"/>
</svg>
