<svg width="336" height="81" viewBox="0 0 336 81" fill="none" xmlns="http://www.w3.org/2000/svg">
<path d="M24.462 58.077C28.5525 47.9115 33.1695 36.288 50.625 32.4C50.625 32.4 30.375 32.4 23.814 51.1515C23.814 51.1515 20.25 47.5875 20.25 43.5375C20.25 39.4875 24.3 30.9015 34.425 28.8765C37.3005 28.35 40.5 27.8235 43.659 27.378C51.6375 26.325 59.292 25.191 60.75 22.275C60.75 22.275 54.675 56.7 32.4 56.7C31.671 56.7 30.6585 56.457 29.6865 56.0925L27.783 60.75L23.9355 59.4135L24.462 58.077ZM40.5 8.1C58.3605 8.1 72.9 22.6395 72.9 40.5C72.9 58.3605 58.3605 72.9 40.5 72.9C22.6395 72.9 8.1 58.3605 8.1 40.5C8.1 22.6395 22.6395 8.1 40.5 8.1ZM40.5 0C18.225 0 0 18.225 0 40.5C0 62.775 18.225 81 40.5 81C62.775 81 81 62.775 81 40.5C81 18.225 62.775 0 40.5 0Z" fill="#49B900"/>
<path d="M110.043 18.4545V65H100.202V18.4545H110.043ZM149.003 33.5C148.685 32.3939 148.238 31.4167 147.662 30.5682C147.086 29.7045 146.382 28.9773 145.548 28.3864C144.73 27.7803 143.791 27.3182 142.73 27C141.685 26.6818 140.526 26.5227 139.253 26.5227C136.874 26.5227 134.783 27.1136 132.98 28.2955C131.192 29.4773 129.798 31.197 128.798 33.4545C127.798 35.697 127.298 38.4394 127.298 41.6818C127.298 44.9242 127.791 47.6818 128.776 49.9545C129.76 52.2273 131.154 53.9621 132.957 55.1591C134.76 56.3409 136.889 56.9318 139.344 56.9318C141.571 56.9318 143.473 56.5379 145.048 55.75C146.639 54.947 147.851 53.8182 148.685 52.3636C149.533 50.9091 149.957 49.1894 149.957 47.2045L151.957 47.5H139.957V40.0909H159.435V45.9545C159.435 50.0455 158.571 53.5606 156.844 56.5C155.116 59.4242 152.738 61.6818 149.707 63.2727C146.677 64.8485 143.207 65.6364 139.298 65.6364C134.935 65.6364 131.101 64.6742 127.798 62.75C124.495 60.8106 121.92 58.0606 120.071 54.5C118.238 50.9242 117.321 46.6818 117.321 41.7727C117.321 38 117.866 34.6364 118.957 31.6818C120.063 28.7121 121.609 26.197 123.594 24.1364C125.579 22.0758 127.889 20.5076 130.526 19.4318C133.162 18.3561 136.018 17.8182 139.094 17.8182C141.73 17.8182 144.185 18.2045 146.457 18.9773C148.73 19.7348 150.745 20.8106 152.503 22.2045C154.276 23.5985 155.723 25.2576 156.844 27.1818C157.965 29.0909 158.685 31.197 159.003 33.5H149.003ZM166.645 65V30.0909H176.031V36.1818H176.395C177.031 34.0152 178.099 32.3788 179.599 31.2727C181.099 30.1515 182.827 29.5909 184.781 29.5909C185.266 29.5909 185.789 29.6212 186.349 29.6818C186.91 29.7424 187.402 29.8258 187.827 29.9318V38.5227C187.372 38.3864 186.743 38.2652 185.94 38.1591C185.137 38.053 184.402 38 183.736 38C182.312 38 181.039 38.3106 179.918 38.9318C178.812 39.5379 177.933 40.3864 177.281 41.4773C176.645 42.5682 176.327 43.8258 176.327 45.25V65H166.645ZM207.116 65.6818C203.526 65.6818 200.435 64.9545 197.844 63.5C195.268 62.0303 193.283 59.9545 191.889 57.2727C190.495 54.5758 189.798 51.3864 189.798 47.7045C189.798 44.1136 190.495 40.9621 191.889 38.25C193.283 35.5379 195.245 33.4242 197.776 31.9091C200.321 30.3939 203.306 29.6364 206.73 29.6364C209.033 29.6364 211.177 30.0076 213.162 30.75C215.162 31.4773 216.904 32.5758 218.389 34.0455C219.889 35.5152 221.056 37.3636 221.889 39.5909C222.723 41.803 223.139 44.3939 223.139 47.3636V50.0227H193.662V44.0227H214.026C214.026 42.6288 213.723 41.3939 213.116 40.3182C212.51 39.2424 211.67 38.4015 210.594 37.7955C209.533 37.1742 208.298 36.8636 206.889 36.8636C205.42 36.8636 204.116 37.2045 202.98 37.8864C201.859 38.553 200.98 39.4545 200.344 40.5909C199.707 41.7121 199.382 42.9621 199.366 44.3409V50.0455C199.366 51.7727 199.685 53.2652 200.321 54.5227C200.973 55.7803 201.889 56.75 203.071 57.4318C204.253 58.1136 205.654 58.4545 207.276 58.4545C208.351 58.4545 209.336 58.303 210.23 58C211.124 57.697 211.889 57.2424 212.526 56.6364C213.162 56.0303 213.647 55.2879 213.98 54.4091L222.935 55C222.48 57.1515 221.548 59.0303 220.139 60.6364C218.745 62.2273 216.942 63.4697 214.73 64.3636C212.533 65.2424 209.995 65.6818 207.116 65.6818ZM245.366 65.6818C241.776 65.6818 238.685 64.9545 236.094 63.5C233.518 62.0303 231.533 59.9545 230.139 57.2727C228.745 54.5758 228.048 51.3864 228.048 47.7045C228.048 44.1136 228.745 40.9621 230.139 38.25C231.533 35.5379 233.495 33.4242 236.026 31.9091C238.571 30.3939 241.556 29.6364 244.98 29.6364C247.283 29.6364 249.427 30.0076 251.412 30.75C253.412 31.4773 255.154 32.5758 256.639 34.0455C258.139 35.5152 259.306 37.3636 260.139 39.5909C260.973 41.803 261.389 44.3939 261.389 47.3636V50.0227H231.912V44.0227H252.276C252.276 42.6288 251.973 41.3939 251.366 40.3182C250.76 39.2424 249.92 38.4015 248.844 37.7955C247.783 37.1742 246.548 36.8636 245.139 36.8636C243.67 36.8636 242.366 37.2045 241.23 37.8864C240.109 38.553 239.23 39.4545 238.594 40.5909C237.957 41.7121 237.632 42.9621 237.616 44.3409V50.0455C237.616 51.7727 237.935 53.2652 238.571 54.5227C239.223 55.7803 240.139 56.75 241.321 57.4318C242.503 58.1136 243.904 58.4545 245.526 58.4545C246.601 58.4545 247.586 58.303 248.48 58C249.374 57.697 250.139 57.2424 250.776 56.6364C251.412 56.0303 251.897 55.2879 252.23 54.4091L261.185 55C260.73 57.1515 259.798 59.0303 258.389 60.6364C256.995 62.2273 255.192 63.4697 252.98 64.3636C250.783 65.2424 248.245 65.6818 245.366 65.6818ZM277.389 44.8182V65H267.707V30.0909H276.935V36.25H277.344C278.116 34.2197 279.412 32.6136 281.23 31.4318C283.048 30.2348 285.253 29.6364 287.844 29.6364C290.268 29.6364 292.382 30.1667 294.185 31.2273C295.988 32.2879 297.389 33.803 298.389 35.7727C299.389 37.7273 299.889 40.0606 299.889 42.7727V65H290.207V44.5C290.223 42.3636 289.677 40.697 288.571 39.5C287.465 38.2879 285.942 37.6818 284.003 37.6818C282.7 37.6818 281.548 37.9621 280.548 38.5227C279.563 39.0833 278.791 39.9015 278.23 40.9773C277.685 42.0379 277.404 43.3182 277.389 44.8182Z" fill="#49B900"/>
</svg>
